<svg xmlns="http://www.w3.org/2000/svg" xmlns:xlink="http://www.w3.org/1999/xlink" width="500" zoomAndPan="magnify" viewBox="0 0 375 374.999991" height="500" preserveAspectRatio="xMidYMid meet" version="1.0"><defs><clipPath id="a7dbcb93cf"><path d="M 224 37.5 L 315.375 37.5 L 315.375 252 L 224 252 Z M 224 37.5 " clip-rule="nonzero"/></clipPath><clipPath id="04e467f1d9"><path d="M 59.625 39 L 124 39 L 124 223 L 59.625 223 Z M 59.625 39 " clip-rule="nonzero"/></clipPath><clipPath id="4bc85c0d96"><path d="M 134 170 L 315.375 170 L 315.375 323 L 134 323 Z M 134 170 " clip-rule="nonzero"/></clipPath></defs><rect x="-37.5" width="450" fill="#ffffff" y="-37.499999" height="449.999989" fill-opacity="1"/><rect x="-37.5" width="450" fill="#0f0147" y="-37.499999" height="449.999989" fill-opacity="1"/><g clip-path="url(#a7dbcb93cf)"><path fill="#faa954" d="M 315.375 129.5 C 315.375 132.90625 315.238281 136.300781 314.96875 139.695312 C 314.695312 143.085938 314.289062 146.464844 313.75 149.824219 C 313.207031 153.183594 312.535156 156.515625 311.730469 159.824219 C 310.921875 163.128906 309.984375 166.398438 308.917969 169.628906 C 307.847656 172.859375 306.65625 176.042969 305.332031 179.179688 C 304.011719 182.316406 302.566406 185.394531 301 188.417969 C 299.433594 191.4375 297.746094 194.390625 295.945312 197.277344 C 294.140625 200.164062 292.226562 202.972656 290.199219 205.707031 C 288.171875 208.441406 286.039062 211.089844 283.800781 213.652344 C 281.5625 216.214844 279.226562 218.6875 276.789062 221.0625 C 274.355469 223.441406 271.828125 225.714844 269.210938 227.890625 C 266.59375 230.066406 263.894531 232.132812 261.109375 234.09375 C 258.328125 236.054688 255.472656 237.898438 252.542969 239.632812 C 249.613281 241.363281 246.621094 242.976562 243.5625 244.46875 C 240.503906 245.960938 237.390625 247.332031 234.222656 248.574219 C 231.054688 249.820312 227.84375 250.9375 224.585938 251.925781 C 226.6875 250.445312 228.6875 248.847656 230.597656 247.128906 C 232.503906 245.410156 234.300781 243.585938 235.988281 241.648438 C 237.679688 239.714844 239.246094 237.6875 240.691406 235.566406 C 242.136719 233.441406 243.449219 231.242188 244.628906 228.960938 C 245.808594 226.683594 246.851562 224.339844 247.75 221.9375 C 248.652344 219.53125 249.40625 217.082031 250.011719 214.585938 C 250.617188 212.09375 251.074219 209.570312 251.378906 207.019531 C 251.679688 204.472656 251.832031 201.914062 251.828125 199.34375 L 251.828125 38.042969 C 253.660156 37.96875 255.503906 37.925781 257.355469 37.925781 L 315.375 37.925781 Z M 315.375 129.5 " fill-opacity="1" fill-rule="evenodd"/></g><g clip-path="url(#04e467f1d9)"><path fill="#30a755" d="M 61.675781 222.238281 C 60.304688 214.671875 59.621094 207.039062 59.625 199.34375 L 59.625 39.320312 L 123.171875 39.320312 L 123.171875 151.300781 C 119.664062 153.21875 116.246094 155.289062 112.925781 157.511719 C 109.601562 159.734375 106.382812 162.101562 103.269531 164.613281 C 100.15625 167.121094 97.164062 169.765625 94.285156 172.542969 C 91.410156 175.316406 88.660156 178.21875 86.042969 181.238281 C 83.421875 184.257812 80.945312 187.390625 78.605469 190.632812 C 76.265625 193.875 74.074219 197.214844 72.03125 200.652344 C 69.988281 204.089844 68.101562 207.609375 66.371094 211.214844 C 64.644531 214.820312 63.078125 218.496094 61.675781 222.238281 Z M 61.675781 222.238281 " fill-opacity="1" fill-rule="evenodd"/></g><path fill="#a5ce46" d="M 64.445312 234.269531 C 71.621094 208.921875 93.558594 178.34375 123.171875 160.496094 L 123.171875 199.34375 C 123.171875 256.125 156.5 305.039062 210.582031 325.152344 C 208.648438 325.503906 206.707031 325.8125 204.761719 326.074219 C 202.8125 326.339844 200.859375 326.554688 198.898438 326.730469 C 196.941406 326.902344 194.980469 327.03125 193.015625 327.113281 C 191.050781 327.195312 189.085938 327.234375 187.121094 327.226562 C 185.15625 327.21875 183.191406 327.167969 181.226562 327.070312 C 179.261719 326.972656 177.300781 326.828125 175.34375 326.640625 C 173.386719 326.453125 171.4375 326.21875 169.492188 325.941406 C 167.542969 325.660156 165.605469 325.339844 163.675781 324.972656 C 161.742188 324.605469 159.820312 324.191406 157.910156 323.738281 C 155.996094 323.28125 154.09375 322.78125 152.207031 322.238281 C 150.316406 321.695312 148.441406 321.105469 146.578125 320.476562 C 144.714844 319.847656 142.867188 319.175781 141.039062 318.460938 C 139.207031 317.746094 137.390625 316.988281 135.59375 316.191406 C 133.796875 315.390625 132.019531 314.550781 130.261719 313.671875 C 128.503906 312.792969 126.769531 311.871094 125.054688 310.910156 C 123.335938 309.949219 121.644531 308.949219 119.976562 307.914062 C 118.304688 306.875 116.660156 305.796875 115.042969 304.683594 C 113.421875 303.570312 111.828125 302.417969 110.261719 301.230469 C 108.695312 300.042969 107.15625 298.820312 105.644531 297.5625 C 104.132812 296.304688 102.652344 295.011719 101.203125 293.6875 C 99.75 292.359375 98.332031 291 96.941406 289.609375 C 95.554688 288.21875 94.199219 286.792969 92.875 285.339844 C 91.550781 283.886719 90.261719 282.402344 89.007812 280.886719 C 87.753906 279.375 86.535156 277.832031 85.351562 276.261719 C 84.167969 274.691406 83.019531 273.097656 81.910156 271.472656 C 80.800781 269.851562 79.726562 268.203125 78.695312 266.53125 C 77.660156 264.859375 76.664062 263.164062 75.707031 261.449219 C 74.753906 259.730469 73.835938 257.992188 72.960938 256.230469 C 72.082031 254.472656 71.25 252.691406 70.453125 250.894531 C 69.660156 249.09375 68.90625 247.277344 68.199219 245.445312 C 67.488281 243.613281 66.820312 241.765625 66.191406 239.898438 C 65.566406 238.035156 64.984375 236.160156 64.445312 234.269531 Z M 64.445312 234.269531 " fill-opacity="1" fill-rule="evenodd"/><g clip-path="url(#4bc85c0d96)"><path fill="#ffcc29" d="M 134.921875 236.429688 C 136.402344 238.527344 138 240.53125 139.71875 242.4375 C 141.4375 244.347656 143.265625 246.144531 145.199219 247.832031 C 147.132812 249.519531 149.160156 251.085938 151.285156 252.53125 C 153.40625 253.976562 155.605469 255.289062 157.886719 256.472656 C 160.164062 257.652344 162.507812 258.695312 164.910156 259.597656 C 167.316406 260.496094 169.765625 261.25 172.257812 261.859375 C 174.753906 262.464844 177.277344 262.921875 179.824219 263.226562 C 182.375 263.53125 184.933594 263.683594 187.5 263.683594 C 191.03125 263.683594 194.554688 263.542969 198.078125 263.265625 C 201.597656 262.988281 205.101562 262.570312 208.585938 262.015625 C 212.074219 261.464844 215.535156 260.773438 218.96875 259.945312 C 222.398438 259.117188 225.792969 258.15625 229.152344 257.058594 C 232.507812 255.964844 235.816406 254.738281 239.074219 253.382812 C 242.335938 252.023438 245.539062 250.542969 248.679688 248.933594 C 251.824219 247.324219 254.898438 245.59375 257.902344 243.742188 C 260.910156 241.886719 263.839844 239.921875 266.691406 237.835938 C 269.542969 235.753906 272.304688 233.5625 274.984375 231.261719 C 277.660156 228.960938 280.246094 226.554688 282.734375 224.050781 C 285.222656 221.546875 287.605469 218.945312 289.890625 216.253906 C 292.171875 213.558594 294.347656 210.777344 296.410156 207.914062 C 298.472656 205.046875 300.421875 202.105469 302.253906 199.085938 C 304.082031 196.070312 305.792969 192.984375 307.382812 189.828125 C 308.96875 186.675781 310.429688 183.464844 311.765625 180.195312 C 313.097656 176.925781 314.300781 173.609375 315.375 170.246094 L 315.375 199.34375 C 315.375 202.796875 315.234375 206.242188 314.957031 209.679688 C 314.675781 213.117188 314.257812 216.539062 313.703125 219.945312 C 313.148438 223.351562 312.457031 226.730469 311.625 230.078125 C 310.796875 233.425781 309.835938 236.738281 308.738281 240.007812 C 307.640625 243.28125 306.414062 246.503906 305.054688 249.675781 C 303.699219 252.847656 302.214844 255.957031 300.605469 259.011719 C 298.996094 262.0625 297.265625 265.046875 295.414062 267.957031 C 293.566406 270.871094 291.601562 273.703125 289.519531 276.457031 C 287.441406 279.207031 285.253906 281.875 282.957031 284.449219 C 280.664062 287.027344 278.265625 289.503906 275.769531 291.886719 C 273.277344 294.269531 270.6875 296.546875 268.007812 298.71875 C 265.328125 300.894531 262.5625 302.953125 259.71875 304.90625 C 256.871094 306.855469 253.949219 308.683594 250.953125 310.398438 C 247.957031 312.113281 244.898438 313.699219 241.777344 315.167969 C 238.652344 316.632812 235.476562 317.96875 232.242188 319.179688 C 229.011719 320.386719 225.734375 321.464844 222.417969 322.40625 C 219.851562 321.675781 217.316406 320.867188 214.800781 319.976562 C 212.289062 319.089844 209.804688 318.121094 207.351562 317.078125 C 204.898438 316.035156 202.480469 314.917969 200.097656 313.722656 C 197.714844 312.527344 195.371094 311.257812 193.070312 309.917969 C 190.765625 308.578125 188.503906 307.164062 186.289062 305.683594 C 184.074219 304.203125 181.90625 302.652344 179.785156 301.035156 C 177.667969 299.417969 175.601562 297.734375 173.585938 295.988281 C 171.574219 294.242188 169.613281 292.4375 167.714844 290.566406 C 165.8125 288.699219 163.972656 286.773438 162.191406 284.789062 C 160.410156 282.808594 158.691406 280.769531 157.039062 278.679688 C 155.382812 276.589844 153.796875 274.449219 152.277344 272.261719 C 150.753906 270.070312 149.304688 267.835938 147.921875 265.554688 C 146.542969 263.277344 145.234375 260.953125 143.996094 258.59375 C 142.761719 256.230469 141.601562 253.832031 140.511719 251.398438 C 139.425781 248.964844 138.417969 246.5 137.484375 244 C 136.550781 241.503906 135.699219 238.980469 134.921875 236.429688 Z M 134.921875 236.429688 " fill-opacity="1" fill-rule="evenodd"/></g></svg>